<svg width="25" height="15" viewBox="0 0 25 15" fill="none" xmlns="http://www.w3.org/2000/svg">
<path d="M2.54225e-06 7.26632C0.0101363 7.52602 0.11706 7.82625 0.295174 8.01553L6.10685 14.1905C6.50058 14.5444 7.25587 14.6904 7.69595 14.2812C8.12946 13.8781 8.11654 13.0967 7.6848 12.6921L3.59856 8.35601L23.6095 8.35601C24.2112 8.35601 24.6992 7.86804 24.6992 7.26628C24.6992 6.66453 24.2112 6.17655 23.6095 6.17655L3.59856 6.17655L7.6848 1.84046C8.05674 1.46801 8.1254 0.658754 7.69595 0.251362C7.26675 -0.156303 6.48461 -0.0260693 6.10685 0.342315L0.295174 6.51728C0.0962855 6.72859 -0.00050288 6.97663 2.54223e-06 7.26649L2.54225e-06 7.26632Z" fill="white"/>
</svg>
