<svg width="15" height="15" viewBox="0 0 15 15" fill="none" xmlns="http://www.w3.org/2000/svg">
<path d="M8.67192 9.7372H0.92334V7.27271H8.58669C9.16434 7.27271 9.63783 7.18748 10.0071 7.01703C10.3765 6.84657 10.6487 6.6051 10.8239 6.2926C10.9991 5.9801 11.0867 5.61078 11.0867 5.18464C11.0867 4.76798 10.9991 4.39155 10.8239 4.05538C10.6487 3.71921 10.3812 3.45169 10.0214 3.25282C9.6615 3.05396 9.21169 2.95453 8.67192 2.95453H6.04408V15H2.9901V0.454529H8.67192C9.82249 0.454529 10.8073 0.660495 11.6265 1.07243C12.4503 1.47962 13.0801 2.03834 13.5157 2.74856C13.9513 3.45406 14.1667 4.25424 14.162 5.14913C14.1667 6.08663 13.9465 6.89866 13.5015 7.58521C13.0564 8.27176 12.4219 8.80207 11.5981 9.17612C10.7742 9.55017 9.79881 9.7372 8.67192 9.7372ZM9.21879 10.6747V13.1392H0.92334V10.6747H9.21879Z" fill="url(#paint0_linear_568_353)"/>
<defs>
<linearGradient id="paint0_linear_568_353" x1="1.50003" y1="-1.7273" x2="15.006" y2="-1.34593" gradientUnits="userSpaceOnUse">
<stop stop-color="#9E00FF"/>
<stop offset="1" stop-color="#6AC4F8"/>
</linearGradient>
</defs>
</svg>
