<svg width="23" height="13" viewBox="0 0 23 13" fill="none" xmlns="http://www.w3.org/2000/svg">
<path d="M20.501 8.97344C22.3485 10.6737 22.7299 11.4884 22.7894 11.5946C23.5523 12.8462 21.9551 12.9406 21.9551 12.9406L18.8801 12.9879C18.8801 12.9879 18.2126 13.1178 17.3544 12.5274C16.1983 11.7481 15.0899 9.70548 14.2675 9.97705C13.4212 10.2486 13.4451 12.0787 13.4451 12.0787C13.4451 12.0787 13.4451 12.3385 13.2544 12.5392C13.0398 12.7635 12.6227 12.6809 12.6227 12.6809H11.252C11.252 12.6809 8.21268 12.9879 5.55477 10.2368C2.63465 7.23779 0.0601778 1.33421 0.0601778 1.33421C0.0601778 1.33421 -0.0828486 0.979994 0.0720966 0.779272C0.25088 0.590358 0.751472 0.590358 0.751472 0.590358H4.04108C4.04108 0.590358 4.36289 0.590358 4.56551 0.779272C4.74429 0.909151 4.85156 1.18072 4.85156 1.18072C4.85156 1.18072 5.37599 2.49131 6.09112 3.69564C7.46179 6.04527 8.09349 6.55297 8.53449 6.30502C9.24962 5.939 9.047 2.98721 9.047 2.98721C9.047 2.98721 9.05892 1.91276 8.70135 1.44047C8.42722 1.07445 7.90279 0.95638 7.67633 0.932765C7.48563 0.909151 7.79552 0.484093 8.18884 0.283372C8.78479 -2.63911e-07 9.82173 0 11.0613 0C12.0267 0 12.3008 0.0708431 12.6703 0.153493C13.8145 0.425058 13.4212 1.47589 13.4212 3.97901C13.4212 4.79371 13.302 5.90358 13.8622 6.29322C14.1125 6.45852 14.7323 6.31683 16.2817 3.73106C16.9969 2.50312 17.5451 1.05084 17.5451 1.05084C17.5451 1.05084 17.6643 0.802887 17.8431 0.684815C18.0338 0.590358 18.296 0.590358 18.296 0.590358H21.7525C21.7525 0.590358 22.8014 0.472286 22.9682 0.932765C23.147 1.41686 22.5749 2.56215 21.1566 4.41588C18.8443 7.48574 18.5821 7.20237 20.501 8.97344Z" fill="#D8DBEC"/>
</svg>
