<svg width="53" height="49" viewBox="0 0 53 49" fill="none" xmlns="http://www.w3.org/2000/svg">
<path d="M25.3262 30.0004C25.3262 30.5046 25.1268 30.9877 24.7719 31.3439C24.417 31.7001 23.9357 31.9003 23.4334 31.9003H1.89282C1.21638 31.9003 0.591513 31.5386 0.253506 30.9503C-0.0845019 30.3625 -0.0845019 29.6386 0.253506 29.0504C0.591513 28.4626 1.2164 28.1004 1.89282 28.1004H23.4334C23.9357 28.1004 24.417 28.3006 24.7719 28.6572C25.1268 29.0135 25.3262 29.4965 25.3262 30.0003V30.0004ZM23.4334 35.7003H7.57134C6.89491 35.7003 6.27004 36.0624 5.93203 36.6502C5.59402 37.2385 5.59402 37.9624 5.93203 38.5502C6.27004 39.1384 6.89493 39.5002 7.57134 39.5002H23.3955C24.0715 39.5002 24.6964 39.1384 25.0348 38.5502C25.3728 37.9624 25.3728 37.2385 25.0348 36.6502C24.6964 36.0624 24.0715 35.7003 23.3955 35.7003H23.4334ZM23.4334 43.3001H13.2501C12.5736 43.3001 11.9488 43.6623 11.6108 44.2501C11.2728 44.8383 11.2728 45.5623 11.6108 46.1501C11.9488 46.7383 12.5737 47.1001 13.2501 47.1001H23.3958C24.0718 47.1001 24.6967 46.7383 25.0351 46.1501C25.3731 45.5623 25.3731 44.8383 25.0351 44.2501C24.6967 43.6623 24.0718 43.3001 23.3958 43.3001H23.4334ZM52.9617 28.1004C52.9617 33.6434 50.7681 38.9595 46.8636 42.8789C42.9587 46.798 37.6627 48.9999 32.1405 48.9999C30.7366 49.0037 29.3359 48.8702 27.9577 48.6013C28.7558 47.5448 29.1623 46.242 29.1073 44.9175C29.052 43.5926 28.5382 42.3288 27.6547 41.3432C28.5969 40.3029 29.1225 38.9491 29.1309 37.5432C29.1335 36.1352 28.6062 34.7776 27.6547 33.7433C28.632 32.6465 29.1491 31.2127 29.0972 29.742C29.0453 28.2713 28.4288 26.8776 27.3767 25.853C26.3247 24.828 24.9185 24.2516 23.4525 24.2436H11.6606C12.2855 20.9148 13.7013 17.7866 15.7868 15.1237L13.2505 12.5779C12.8981 12.2217 12.7 11.7403 12.7 11.2381C12.7 10.7364 12.8981 10.2547 13.2505 9.89883C13.6059 9.53919 14.0896 9.33689 14.5945 9.33689C15.099 9.33689 15.5828 9.53919 15.9386 9.89883L18.4373 12.407H18.4369C21.7545 9.49723 25.9001 7.7092 30.2861 7.29577V3.79993H28.3933C27.7168 3.79993 27.092 3.43776 26.754 2.84995C26.416 2.26214 26.416 1.53778 26.754 0.949984C27.092 0.362177 27.7169 0 28.3933 0H35.7563C36.4328 0 37.0576 0.362177 37.3956 0.949984C37.7336 1.53779 37.7336 2.26216 37.3956 2.84995C37.0576 3.43776 36.4327 3.79993 35.7563 3.79993H34.0718V7.42898C39.2272 7.90143 44.0223 10.2845 47.5218 14.1132C51.0214 17.9424 52.9743 22.9425 53 28.1382L52.9617 28.1004ZM41.0747 19.1705C40.7193 18.8109 40.2355 18.6086 39.7306 18.6086C39.2261 18.6086 38.7424 18.8109 38.3866 19.1705L30.8152 26.7704C30.4675 27.1267 30.2732 27.6059 30.274 28.1042C30.2753 28.6029 30.4713 29.0813 30.8203 29.4359C31.1697 29.7909 31.6438 29.9936 32.1402 30.0004C32.6434 30.0034 33.1272 29.8053 33.4842 29.4495L41.0556 21.8496C41.4109 21.4963 41.612 21.0163 41.6154 20.5141C41.6192 20.012 41.4245 19.5293 41.0746 19.1705H41.0747Z" fill="url(#paint0_linear_568_354)"/>
<defs>
<linearGradient id="paint0_linear_568_354" x1="2.30871" y1="-7.35004" x2="56.3608" y2="-5.5362" gradientUnits="userSpaceOnUse">
<stop stop-color="#9E00FF"/>
<stop offset="1" stop-color="#6AC4F8"/>
</linearGradient>
</defs>
</svg>
