<svg width="49" height="56" viewBox="0 0 49 56" fill="none" xmlns="http://www.w3.org/2000/svg">
<path d="M45.961 29.0776C45.0523 22.7722 41.2773 17.4873 36.0624 15.1803L32.4553 13.5864H16.5447L12.9516 15.1803C7.73665 17.4872 3.96181 22.772 3.05296 29.0776L0.0610476 49.6014C-0.386346 52.6493 1.68291 55.4176 4.3812 55.4176H44.6185C47.3308 55.4176 49.386 52.6493 48.9386 49.6014L45.961 29.0776ZM24.3046 48.8191C16.7969 48.8191 10.7154 42.7374 10.7154 35.2299C10.7154 27.7224 16.7971 21.6407 24.3046 21.6407C31.8122 21.6407 37.8939 27.7224 37.8939 35.2299C37.9079 42.7377 31.8122 48.8191 24.3046 48.8191Z" fill="url(#paint0_linear_49_2)"/>
<path d="M16.9787 9.96493H31.6302L35.0695 3.67343C35.433 3.00234 34.7759 2.21941 34.0489 2.48504L29.0017 4.30261C28.6662 4.41446 28.3027 4.31659 28.079 4.05094L24.9472 0.30409C24.6117 -0.101363 23.9965 -0.101363 23.661 0.30409L20.5293 4.05094C20.3056 4.31658 19.9281 4.42843 19.6065 4.30261L14.5594 2.48504C13.8324 2.21941 13.1753 3.00234 13.5388 3.67343L16.9787 9.96493Z" fill="url(#paint1_linear_49_2)"/>
<path d="M25.562 33.8031C23.6606 33.0901 22.8777 32.6147 22.8777 31.8737C22.8777 31.2445 23.353 30.6154 24.8071 30.6154C26.4149 30.6154 27.4495 31.1327 28.0227 31.3704L28.6658 28.8398C27.9248 28.4763 26.9182 28.1687 25.4222 28.0988V26.1274H23.2272V28.2526C20.8364 28.7279 19.4523 30.2658 19.4523 32.2372C19.4523 34.4042 21.0881 35.5227 23.4789 36.3336C25.1286 36.8929 25.8557 37.4241 25.8557 38.277C25.8557 39.1718 24.9889 39.6611 23.7026 39.6611C22.2486 39.6611 20.9344 39.1857 19.9836 38.6824L19.3125 41.2969C20.1653 41.7862 21.6194 42.1916 23.1153 42.2616V44.3867H25.3104V42.1078C27.8829 41.6604 29.295 39.9547 29.295 37.9694C29.295 35.9701 28.2185 34.7397 25.5621 33.803L25.562 33.8031Z" fill="url(#paint2_linear_49_2)"/>
<defs>
<linearGradient id="paint0_linear_49_2" x1="2.13447" y1="7.31172" x2="52.0974" y2="9.12745" gradientUnits="userSpaceOnUse">
<stop stop-color="#9E00FF"/>
<stop offset="1" stop-color="#6AC4F8"/>
</linearGradient>
<linearGradient id="paint1_linear_49_2" x1="14.3824" y1="-1.49475" x2="36.4749" y2="0.000383344" gradientUnits="userSpaceOnUse">
<stop stop-color="#9E00FF"/>
<stop offset="1" stop-color="#6AC4F8"/>
</linearGradient>
<linearGradient id="paint2_linear_49_2" x1="19.7473" y1="23.3885" x2="29.9365" y2="23.5614" gradientUnits="userSpaceOnUse">
<stop stop-color="#9E00FF"/>
<stop offset="1" stop-color="#6AC4F8"/>
</linearGradient>
</defs>
</svg>
