<svg width="59" height="59" viewBox="0 0 59 59" fill="none" xmlns="http://www.w3.org/2000/svg">
<path d="M58.8482 22.2944C58.4966 21.2459 57.5894 20.4824 56.4974 20.3155L39.7075 17.7484L32.1712 1.69693C31.6847 0.659328 30.6447 0 29.5009 0C28.357 0 27.3155 0.662767 26.8305 1.69693L19.2951 17.7484L2.50521 20.315C1.4118 20.4825 0.504083 21.2455 0.152987 22.2944C-0.198639 23.3429 0.0665621 24.4981 0.838477 25.2907L13.0735 37.8313L10.1809 55.5744C9.99814 56.6895 10.4688 57.8102 11.3938 58.461C12.3159 59.1095 13.5328 59.1811 14.5195 58.6309L29.5002 50.3483L44.4771 58.6309C44.924 58.8783 45.4164 58.9993 45.9063 58.9993C46.5024 58.9993 47.099 58.8181 47.6062 58.4605C48.5282 57.8096 49.0003 56.689 48.8191 55.5739L45.9265 37.8308L58.1615 25.2902C58.9334 24.498 59.1986 23.3429 58.847 22.2944L58.8482 22.2944Z" fill="url(#paint0_linear_568_364)"/>
<defs>
<linearGradient id="paint0_linear_568_364" x1="2.57008" y1="-8.85004" x2="62.7511" y2="-6.98296" gradientUnits="userSpaceOnUse">
<stop stop-color="#9E00FF"/>
<stop offset="1" stop-color="#6AC4F8"/>
</linearGradient>
</defs>
</svg>
