<svg width="41" height="49" viewBox="0 0 41 49" fill="none" xmlns="http://www.w3.org/2000/svg">
<path d="M38.8049 7.82894C35.8616 7.37252 32.9798 6.58279 30.2155 5.47547C26.9731 4.17543 23.9184 2.44897 21.1325 0.341642C20.8395 0.120091 20.4823 0 20.1152 0C19.7481 0 19.3909 0.120091 19.0979 0.341642C16.3123 2.44888 13.2576 4.17533 10.0149 5.47547C7.25135 6.5825 4.3703 7.37217 1.42854 7.82894C1.03066 7.89088 0.668107 8.09305 0.40625 8.3986C0.144412 8.70414 0.000379419 9.09328 0 9.49609V28.8815C0 34.2175 2.11939 39.3349 5.89228 43.1077C9.66516 46.8805 14.7822 49 20.1176 49C25.4529 49 30.5701 46.8806 34.3428 43.1077C38.1156 39.3348 40.2355 34.2177 40.2355 28.8815V9.49317C40.2344 9.09073 40.0896 8.70158 39.8274 8.39646C39.5648 8.0913 39.2018 7.88951 38.8043 7.82832L38.8049 7.82894ZM32.8092 18.0168L17.4622 33.3638C17.1456 33.6792 16.717 33.8567 16.2696 33.8567C15.8227 33.8567 15.3937 33.6792 15.0771 33.3638L7.42413 25.7158C7.03309 25.283 6.89324 24.6795 7.05361 24.1185C7.21397 23.558 7.65214 23.1198 8.21307 22.9595C8.77361 22.7991 9.3775 22.9393 9.80994 23.3304L16.267 29.7878L30.4212 15.6335C30.8537 15.2417 31.4571 15.1011 32.0181 15.2607C32.579 15.4207 33.0175 15.8585 33.1787 16.419C33.3395 16.9796 33.2 17.5835 32.8093 18.0163L32.8092 18.0168Z" fill="url(#paint0_linear_49_17)"/>
<defs>
<linearGradient id="paint0_linear_49_17" x1="1.75268" y1="-7.35004" x2="42.8065" y2="-6.30418" gradientUnits="userSpaceOnUse">
<stop stop-color="#9E00FF"/>
<stop offset="1" stop-color="#6AC4F8"/>
</linearGradient>
</defs>
</svg>
