<svg width="50" height="53" viewBox="0 0 50 53" fill="none" xmlns="http://www.w3.org/2000/svg">
<path d="M17.8793 18.0805C17.5313 18.9727 17.1896 19.8649 16.8542 20.7572C16.0253 22.9403 15.152 25.1171 14.3674 27.3129C14.1775 27.8444 13.7346 28.2494 13.1461 28.2494H2.86958C2.61014 28.2494 2.36335 28.1735 2.17352 28.0406C1.9204 27.8697 1.76853 27.6103 1.64197 27.3129C1.57869 27.0028 1.61665 26.6611 1.75587 26.37C1.7622 26.3574 1.76852 26.351 1.77485 26.3384C3.38843 23.2567 4.9894 20.1687 6.63469 17.106C6.84351 16.72 7.29912 16.4795 7.72941 16.4795H16.6581C17.4111 16.4795 18.1832 17.3021 17.8794 18.0805L17.8793 18.0805Z" fill="url(#paint0_linear_49_6)"/>
<path d="M18.6949 50.9028C17.5053 49.536 16.3219 48.1692 15.1323 46.8023C13.0441 44.3977 10.9496 41.9931 8.86139 39.5884C7.7983 38.3671 6.73521 37.1459 5.67218 35.9246C4.64706 34.7539 3.58396 33.6023 2.6032 32.3935C2.27414 31.9886 2.1286 31.5076 2.34375 31.0014C2.53991 30.5395 2.99552 30.2104 3.50178 30.2104H13.1392C13.715 30.2104 14.1833 30.6218 14.3605 31.1533C16.0184 36.0764 17.7903 40.9742 19.4987 45.8786C19.4987 45.8849 19.5051 45.8976 19.5051 45.9039C19.9417 47.1632 20.3783 48.4161 20.8213 49.669C21.2199 50.846 19.5177 51.8395 18.6951 50.903L18.6949 50.9028Z" fill="url(#paint1_linear_49_6)"/>
<path d="M31.8955 28.249H17.8228C17.0571 28.249 16.3105 27.4263 16.6015 26.6416C16.9115 25.8064 17.2279 24.971 17.5443 24.1421C18.3986 21.8957 19.1959 19.6176 20.1198 17.4029C20.335 16.8776 20.7273 16.4727 21.3411 16.4727H28.3841C28.9852 16.4727 29.3965 16.8776 29.6054 17.4029C30.2129 18.9216 30.776 20.4592 31.3582 21.9905C31.9467 23.5408 32.5542 25.0849 33.1237 26.6415C33.4021 27.4262 32.6617 28.2489 31.8961 28.2489L31.8955 28.249Z" fill="url(#paint2_linear_49_6)"/>
<path d="M33.1485 31.8246C32.3385 34.1217 31.5349 36.4312 30.7375 38.7347V38.7473C30.7375 38.76 30.7312 38.7663 30.7249 38.779C29.1746 43.2149 27.6306 47.6507 26.0801 52.0868C25.6625 53.2892 24.0552 53.2828 23.6376 52.0868C23.1187 50.6061 22.6062 49.1253 22.0873 47.6446C21.1635 44.9996 20.2459 42.3544 19.3221 39.7094C18.4045 37.0896 17.4553 34.4699 16.5758 31.8375C16.31 31.0465 17.0124 30.2176 17.7971 30.2176H31.9277C32.706 30.2112 33.4274 31.0402 33.149 31.8249L33.1485 31.8246Z" fill="url(#paint3_linear_49_6)"/>
<path d="M47.3489 32.0837C47.3489 32.0901 47.3425 32.0964 47.3425 32.1027C47.2856 32.2103 47.216 32.3115 47.1337 32.4064C45.9187 33.729 44.7671 35.1148 43.5837 36.4689C39.3946 41.2781 35.2056 46.0937 31.0233 50.9096C30.2007 51.8524 28.4985 50.8526 28.9098 49.6756C29.3844 48.3089 29.859 46.942 30.3398 45.5751C32.0167 40.7722 33.7189 35.9693 35.3896 31.1599C35.5731 30.6283 36.0224 30.217 36.6109 30.217H46.2419C46.6722 30.217 47.0329 30.4322 47.2607 30.7486C47.3746 30.9131 47.4569 31.103 47.4885 31.3118C47.5202 31.5712 47.4695 31.8433 47.3493 32.0838L47.3489 32.0837Z" fill="url(#paint4_linear_49_6)"/>
<path d="M46.8492 28.249H36.5728C35.978 28.249 35.554 27.8441 35.3514 27.3188C34.9591 26.2937 34.5668 25.2686 34.1808 24.2435C33.4025 22.187 32.6242 20.1367 31.8395 18.0801C31.5421 17.2954 32.3015 16.4791 33.0608 16.4791H34.0353C36.6867 16.4791 39.3445 16.5107 41.9959 16.4664C42.4262 16.4601 42.8881 16.7069 43.0906 17.0929C44.7042 20.1746 46.3305 23.25 47.9441 26.3379C48.3807 27.1795 47.8428 28.249 46.8493 28.249L46.8492 28.249Z" fill="url(#paint5_linear_49_6)"/>
<path d="M26.7576 9.43002V2.83637V1.89984C26.7576 0.90636 25.8844 -0.0428237 24.8593 0.00149334C23.8278 0.0457884 22.9609 0.836783 22.9609 1.89984V8.49348V9.43002C22.9609 10.4235 23.8342 11.3727 24.8593 11.3284C25.8907 11.2777 26.7576 10.4931 26.7576 9.43002Z" fill="url(#paint6_linear_49_6)"/>
<path d="M8.40053 9.70883C6.88819 8.18377 5.37574 6.66507 3.86341 5.14012C3.64826 4.92497 3.4331 4.70982 3.22429 4.49468C2.5219 3.79228 1.23095 3.74166 0.541201 4.49468C-0.154867 5.25403 -0.20549 6.42473 0.541201 7.17777C2.05354 8.70283 3.56599 10.2215 5.07832 11.7465C5.29347 11.9616 5.50863 12.1768 5.71744 12.3919C6.41983 13.0943 7.71078 13.1449 8.40053 12.3919C9.10292 11.6326 9.15355 10.4619 8.40053 9.70883Z" fill="url(#paint7_linear_49_6)"/>
<path d="M44.001 12.3979C45.5133 10.8728 47.0258 9.35413 48.5381 7.82919C48.7533 7.61403 48.9684 7.39888 49.1772 7.18374C49.8796 6.48134 49.9366 5.19676 49.1772 4.50065C48.4242 3.80458 47.2409 3.74763 46.4941 4.50065C44.9818 6.02571 43.4693 7.54441 41.957 9.06936C41.7419 9.28451 41.5267 9.49966 41.3179 9.7148C40.6155 10.4172 40.5585 11.7018 41.3179 12.3979C42.0709 13.0876 43.2542 13.1446 44.001 12.3979Z" fill="url(#paint8_linear_49_6)"/>
<defs>
<linearGradient id="paint0_linear_49_6" x1="2.32386" y1="14.714" x2="18.9709" y2="15.4308" gradientUnits="userSpaceOnUse">
<stop stop-color="#9E00FF"/>
<stop offset="1" stop-color="#6AC4F8"/>
</linearGradient>
<linearGradient id="paint1_linear_49_6" x1="3.0541" y1="27.0509" x2="22.0698" y2="27.5729" gradientUnits="userSpaceOnUse">
<stop stop-color="#9E00FF"/>
<stop offset="1" stop-color="#6AC4F8"/>
</linearGradient>
<linearGradient id="paint2_linear_49_6" x1="17.2622" y1="14.7062" x2="34.2256" y2="15.4501" gradientUnits="userSpaceOnUse">
<stop stop-color="#9E00FF"/>
<stop offset="1" stop-color="#6AC4F8"/>
</linearGradient>
<linearGradient id="paint3_linear_49_6" x1="17.2456" y1="26.8022" x2="34.2788" y2="27.1896" gradientUnits="userSpaceOnUse">
<stop stop-color="#9E00FF"/>
<stop offset="1" stop-color="#6AC4F8"/>
</linearGradient>
<linearGradient id="paint4_linear_49_6" x1="29.6591" y1="27.0571" x2="48.6875" y2="27.5797" gradientUnits="userSpaceOnUse">
<stop stop-color="#9E00FF"/>
<stop offset="1" stop-color="#6AC4F8"/>
</linearGradient>
<linearGradient id="paint5_linear_49_6" x1="32.4845" y1="14.6989" x2="49.1203" y2="15.4139" gradientUnits="userSpaceOnUse">
<stop stop-color="#9E00FF"/>
<stop offset="1" stop-color="#6AC4F8"/>
</linearGradient>
<linearGradient id="paint6_linear_49_6" x1="23.1263" y1="-1.69949" x2="27.0023" y2="-1.65919" gradientUnits="userSpaceOnUse">
<stop stop-color="#9E00FF"/>
<stop offset="1" stop-color="#6AC4F8"/>
</linearGradient>
<linearGradient id="paint7_linear_49_6" x1="0.389714" y1="2.60035" x2="9.51536" y2="2.88213" gradientUnits="userSpaceOnUse">
<stop stop-color="#9E00FF"/>
<stop offset="1" stop-color="#6AC4F8"/>
</linearGradient>
<linearGradient id="paint8_linear_49_6" x1="41.1597" y1="2.61006" x2="50.295" y2="2.89274" gradientUnits="userSpaceOnUse">
<stop stop-color="#9E00FF"/>
<stop offset="1" stop-color="#6AC4F8"/>
</linearGradient>
</defs>
</svg>
