<svg width="148" height="55" viewBox="0 0 148 55" fill="none" xmlns="http://www.w3.org/2000/svg">
<path d="M54.107 30.3448C55.8319 30.3448 57.1482 30.7512 58.0561 31.5415C58.9639 32.3317 59.3951 33.438 59.3951 34.8604C59.3951 35.8538 59.1682 36.7118 58.6916 37.4343C58.2377 38.1342 57.5568 38.6761 56.6489 39.0148L59.5086 44.1174C59.554 44.2077 59.5767 44.2754 59.5767 44.3432C59.5767 44.4561 59.5313 44.569 59.4405 44.6593C59.3497 44.7496 59.2363 44.7947 59.1228 44.7947H57.3525C57.0802 44.7947 56.8759 44.727 56.7397 44.5915C56.6035 44.4561 56.5128 44.3432 56.4674 44.2303L53.7439 39.4212H50.9977V44.2303C50.9977 44.3883 50.9523 44.5012 50.8388 44.6141C50.7253 44.727 50.5891 44.7722 50.453 44.7722H48.7735C48.6146 44.7722 48.5011 44.727 48.3876 44.6141C48.2742 44.5012 48.2288 44.3658 48.2288 44.2303V30.9093C48.2288 30.7512 48.2742 30.6383 48.3876 30.5254C48.5011 30.4126 48.6373 30.3674 48.7735 30.3674H54.107V30.3448ZM50.9977 36.8473H54.0162C54.8106 36.8473 55.4234 36.7118 55.9 36.4409C56.3766 36.1699 56.6035 35.6506 56.6035 34.883C56.6035 34.1153 56.3766 33.5961 55.9 33.3251C55.4234 33.0542 54.8106 32.9413 54.0162 32.9413H51.0204V36.8473H50.9977Z" fill="white"/>
<path d="M66.4762 33.867C67.2251 33.867 67.9287 33.9799 68.5415 34.2283C69.1543 34.454 69.699 34.7927 70.1302 35.1991C70.5841 35.6055 70.9473 36.1022 71.1969 36.6441C71.4693 37.186 71.6281 37.7956 71.6735 38.4278C71.6962 38.5406 71.6962 38.6987 71.6962 38.9019C71.6962 39.1051 71.6962 39.2857 71.6962 39.4889C71.6962 39.6921 71.6962 39.8727 71.6962 40.0534C71.6962 40.234 71.6962 40.392 71.6735 40.5275C71.6281 41.1597 71.4693 41.7467 71.1969 42.3112C70.9246 42.853 70.5841 43.3498 70.1302 43.7336C69.6763 44.14 69.1543 44.4561 68.5415 44.6819C67.9287 44.9076 67.2478 45.0431 66.4762 45.0431C65.7045 45.0431 65.0236 44.9302 64.4108 44.6819C63.798 44.4561 63.2533 44.1174 62.8221 43.7336C62.3682 43.3272 62.0278 42.853 61.7554 42.3112C61.4831 41.7693 61.3242 41.1597 61.2788 40.5275C61.2561 40.4146 61.2561 40.2566 61.2561 40.0534C61.2561 39.8727 61.2561 39.6695 61.2561 39.4889C61.2561 39.2857 61.2561 39.1051 61.2561 38.9019C61.2561 38.6987 61.2788 38.5406 61.2788 38.4278C61.3242 37.7956 61.4831 37.2085 61.7554 36.6441C62.0278 36.1022 62.3909 35.6055 62.8448 35.1991C63.2987 34.7927 63.8207 34.454 64.4335 34.2283C65.0463 33.9799 65.7272 33.867 66.4762 33.867ZM68.9954 38.4955C68.95 38.0665 68.8592 37.7053 68.7004 37.4343C68.5415 37.1634 68.3372 36.9376 68.1103 36.757C67.8833 36.5989 67.611 36.4861 67.3386 36.4183C67.0663 36.3506 66.7712 36.328 66.4989 36.328C66.2038 36.328 65.9315 36.3506 65.6591 36.4183C65.3868 36.4861 65.1371 36.5989 64.8874 36.757C64.6605 36.915 64.4562 37.1408 64.2974 37.4343C64.1385 37.7053 64.0477 38.0665 64.0023 38.4955C63.9796 38.6084 63.9796 38.7439 63.9796 38.9019C63.9796 39.0599 63.9796 39.2406 63.9796 39.4212C63.9796 39.6018 63.9796 39.7824 63.9796 39.9405C63.9796 40.1211 64.0023 40.2566 64.0023 40.3469C64.0477 40.7759 64.1385 41.1371 64.2974 41.4081C64.4562 41.679 64.6605 41.9048 64.8874 42.0854C65.1144 42.2434 65.3868 42.3563 65.6591 42.4241C65.9315 42.4918 66.2265 42.5144 66.4989 42.5144C66.7939 42.5144 67.0663 42.4918 67.3386 42.4241C67.611 42.3563 67.8606 42.2434 68.1103 42.0854C68.3599 41.9273 68.5415 41.7016 68.7004 41.4081C68.8592 41.1371 68.95 40.7759 68.9954 40.3469C69.0181 40.2566 69.0181 40.1211 69.0181 39.9405C69.0181 39.7599 69.0181 39.6018 69.0181 39.4212C69.0181 39.2406 69.0181 39.0599 69.0181 38.9019C69.0181 38.7439 69.0181 38.6084 68.9954 38.4955Z" fill="white"/>
<path d="M79.8895 33.867C80.5704 33.867 81.2059 34.0025 81.7733 34.2734C82.3407 34.5443 82.8173 34.9056 83.2031 35.3346C83.5889 35.7861 83.9067 36.3054 84.1336 36.8925C84.3606 37.4795 84.4968 38.0891 84.5195 38.7213C84.5422 38.9245 84.5422 39.1728 84.5422 39.4438C84.5422 39.7147 84.5422 39.9631 84.5195 40.1663C84.4968 40.7984 84.3606 41.4081 84.1336 41.9951C83.9067 42.5821 83.5889 43.1014 83.2031 43.553C82.8173 44.0045 82.3407 44.3658 81.7733 44.6141C81.2059 44.8851 80.5931 45.0205 79.8895 45.0205C79.4583 45.0205 79.0725 44.9754 78.732 44.9076C78.3916 44.8173 78.0965 44.727 77.8469 44.5916C77.5972 44.4787 77.3703 44.3432 77.1887 44.1851C77.0071 44.0271 76.871 43.9142 76.7575 43.7787V44.2529C76.7575 44.4109 76.7121 44.5238 76.5986 44.6367C76.4851 44.7496 76.3489 44.7948 76.2128 44.7948H74.6468C74.4879 44.7948 74.3744 44.7496 74.2609 44.6367C74.1474 44.5238 74.1021 44.3884 74.1021 44.2529V30.7061C74.1021 30.548 74.1474 30.4352 74.2609 30.3223C74.3744 30.2094 74.5106 30.1642 74.6468 30.1642H76.2128C76.3716 30.1642 76.4851 30.2094 76.5986 30.3223C76.7121 30.4352 76.7575 30.5706 76.7575 30.7061V35.1088C76.871 34.9959 77.0071 34.8604 77.1887 34.7024C77.3703 34.5443 77.5972 34.4315 77.8469 34.296C78.0965 34.1831 78.3916 34.0702 78.732 33.9799C79.0951 33.8896 79.481 33.867 79.8895 33.867ZM81.8187 38.8567C81.7279 37.9536 81.4555 37.3214 80.9789 36.9376C80.5023 36.5538 79.9349 36.3506 79.254 36.3506C78.5731 36.3506 78.0057 36.5538 77.5518 36.9602C77.0979 37.3666 76.8256 37.931 76.7575 38.6535C76.7348 38.8567 76.7121 39.1277 76.7121 39.4438C76.7121 39.7599 76.7348 40.0308 76.7575 40.234C76.8256 40.9791 77.0979 41.5435 77.5518 41.9499C78.0057 42.3563 78.5958 42.537 79.254 42.537C79.9349 42.537 80.5023 42.3338 80.9789 41.9499C81.4555 41.5661 81.7279 40.9113 81.8187 40.0308C81.8641 39.6244 81.8641 39.2406 81.8187 38.8567Z" fill="white"/>
<path d="M86.8118 34.6121C86.8118 34.454 86.8572 34.3411 86.9706 34.2282C87.0841 34.1153 87.2203 34.0702 87.3565 34.0702H88.9225C89.0813 34.0702 89.1948 34.1153 89.3083 34.2282C89.4218 34.3411 89.4672 34.4766 89.4672 34.6121V39.8502C89.4672 40.6855 89.6487 41.3403 89.9892 41.837C90.3523 42.3337 90.9197 42.5821 91.7141 42.5821C92.4403 42.5821 93.0077 42.3337 93.3936 41.837C93.7794 41.3403 93.9837 40.6855 93.9837 39.8502V34.6121C93.9837 34.454 94.0291 34.3411 94.1425 34.2282C94.256 34.1153 94.3922 34.0702 94.5284 34.0702H96.0944C96.2533 34.0702 96.3667 34.1153 96.4802 34.2282C96.5937 34.3411 96.6391 34.4766 96.6391 34.6121V44.2303C96.6391 44.3883 96.5937 44.5012 96.4802 44.6141C96.3667 44.727 96.2306 44.7722 96.0944 44.7722H94.5284C94.3695 44.7722 94.256 44.727 94.1425 44.6141C94.0291 44.5012 93.9837 44.3658 93.9837 44.2303V43.7562C93.6659 44.0722 93.2801 44.3658 92.8035 44.6141C92.3269 44.8625 91.7595 44.9979 91.1013 44.9979C90.2615 44.9979 89.558 44.8625 89.0133 44.6141C88.4686 44.3432 88.0146 44.0045 87.6969 43.553C87.3565 43.124 87.1295 42.6047 86.9933 42.0177C86.8571 41.4306 86.7891 40.821 86.7891 40.1663V34.6121H86.8118Z" fill="white"/>
<path d="M104.174 41.3855L101.723 44.3884C101.587 44.5464 101.451 44.6593 101.292 44.7045C101.155 44.7496 100.974 44.7722 100.815 44.7722H99.2263C99.0675 44.7722 98.954 44.727 98.8405 44.6141C98.727 44.5013 98.6816 44.3658 98.6816 44.2077C98.6816 44.0948 98.7043 44.0045 98.7724 43.9142L102.495 39.3083L98.9313 34.9056C98.8859 34.8153 98.8405 34.725 98.8405 34.6121C98.8405 34.454 98.8859 34.3186 98.9994 34.2057C99.1129 34.0928 99.2263 34.0476 99.3852 34.0476H100.974C101.155 34.0476 101.314 34.0702 101.451 34.1154C101.587 34.1605 101.746 34.2734 101.882 34.4315L104.219 37.3214L106.534 34.4315C106.671 34.2734 106.807 34.1605 106.966 34.1154C107.102 34.0702 107.283 34.0476 107.442 34.0476H109.031C109.19 34.0476 109.303 34.0928 109.417 34.2057C109.53 34.3186 109.576 34.454 109.576 34.6121C109.576 34.725 109.553 34.8153 109.485 34.9056L105.876 39.376L109.576 43.8916C109.621 43.982 109.666 44.0723 109.666 44.1852C109.666 44.3432 109.621 44.4787 109.508 44.5916C109.394 44.7045 109.281 44.7496 109.122 44.7496H107.533C107.351 44.7496 107.193 44.727 107.056 44.6819C106.92 44.6367 106.761 44.5238 106.625 44.3658L104.174 41.3855Z" fill="white"/>
<path d="M121.31 30.3448C121.469 30.3448 121.582 30.39 121.696 30.5029C121.809 30.6158 121.854 30.7512 121.854 30.8867V32.3543C121.854 32.5123 121.809 32.6252 121.696 32.7381C121.582 32.851 121.446 32.8962 121.31 32.8962H114.705V36.8925H120.901C121.06 36.8925 121.174 36.9376 121.287 37.0505C121.4 37.1634 121.446 37.2989 121.446 37.4343V38.9019C121.446 39.0599 121.4 39.1728 121.287 39.2857C121.174 39.3986 121.037 39.4438 120.901 39.4438H114.705V44.1626C114.705 44.3206 114.66 44.4335 114.546 44.5464C114.433 44.6593 114.297 44.7044 114.16 44.7044H112.481C112.322 44.7044 112.209 44.6593 112.095 44.5464C111.982 44.4335 111.936 44.298 111.936 44.1626V30.8416C111.936 30.6835 111.982 30.5706 112.095 30.4577C112.209 30.3448 112.345 30.2997 112.481 30.2997H121.31V30.3448Z" fill="white"/>
<path d="M123.67 36.7118C123.715 36.4183 123.851 36.1248 124.056 35.7861C124.26 35.4475 124.532 35.1539 124.895 34.8604C125.259 34.5669 125.713 34.3411 126.235 34.1379C126.757 33.9573 127.392 33.867 128.096 33.867C128.799 33.867 129.435 33.9573 130.002 34.1379C130.569 34.3186 131.046 34.5895 131.455 34.9507C131.863 35.312 132.181 35.7636 132.408 36.3054C132.635 36.8473 132.748 37.4795 132.748 38.1794V44.2529C132.748 44.4109 132.703 44.5238 132.589 44.6367C132.476 44.7496 132.34 44.7948 132.204 44.7948H130.638C130.479 44.7948 130.365 44.7496 130.252 44.6367C130.138 44.5238 130.093 44.3883 130.093 44.2529V43.5755C129.798 43.9819 129.389 44.3206 128.845 44.5915C128.3 44.8625 127.596 45.0205 126.757 45.0205C126.166 45.0205 125.622 44.9302 125.168 44.7948C124.691 44.6367 124.305 44.4109 123.988 44.1174C123.67 43.8239 123.42 43.4852 123.261 43.1014C123.08 42.7176 123.012 42.2886 123.012 41.8145C123.012 40.8662 123.352 40.1211 124.033 39.5792C124.714 39.0374 125.622 38.6761 126.757 38.4955L130.138 37.9085C130.138 37.344 129.957 36.9376 129.571 36.7118C129.208 36.4861 128.731 36.3506 128.186 36.3506C127.846 36.3506 127.574 36.3957 127.369 36.4861C127.165 36.5764 126.984 36.7118 126.802 36.8699C126.688 36.9828 126.552 37.0505 126.461 37.0957C126.348 37.1408 126.235 37.1634 126.121 37.1634H124.192C124.056 37.1634 123.942 37.1182 123.829 37.0505C123.67 36.9602 123.625 36.8473 123.67 36.7118ZM127.12 42.5144C127.596 42.5144 128.005 42.4466 128.368 42.3112C128.731 42.1757 129.049 41.9951 129.298 41.7919C129.548 41.5661 129.73 41.3177 129.866 41.0468C129.979 40.7759 130.047 40.4824 130.047 40.2114V40.0082L127.233 40.5049C126.666 40.5952 126.257 40.7533 126.008 40.9339C125.758 41.1145 125.644 41.3629 125.644 41.679C125.644 41.9725 125.803 42.1757 126.098 42.3112C126.371 42.4466 126.734 42.5144 127.12 42.5144Z" fill="white"/>
<path d="M137.741 30.1416C137.9 30.1416 138.014 30.1868 138.127 30.2997C138.241 30.4126 138.286 30.548 138.286 30.6835V32.2865C138.286 32.4446 138.241 32.5575 138.127 32.6704C138.014 32.7833 137.878 32.8284 137.741 32.8284H135.949C135.79 32.8284 135.676 32.7833 135.563 32.6704C135.449 32.5575 135.404 32.422 135.404 32.2865V30.7061C135.404 30.548 135.449 30.4351 135.563 30.3223C135.676 30.2094 135.812 30.1642 135.949 30.1642H137.741V30.1416ZM138.195 44.2303C138.195 44.3883 138.15 44.5012 138.037 44.6141C137.923 44.727 137.787 44.7722 137.651 44.7722H136.085C135.926 44.7722 135.812 44.727 135.699 44.6141C135.585 44.5012 135.54 44.3658 135.54 44.2303V34.6121C135.54 34.454 135.585 34.3411 135.699 34.2283C135.812 34.1154 135.949 34.0702 136.085 34.0702H137.651C137.81 34.0702 137.923 34.1154 138.037 34.2283C138.15 34.3411 138.195 34.4766 138.195 34.6121V44.2303Z" fill="white"/>
<path d="M146.093 36.5312C145.254 36.5312 144.664 36.7118 144.3 37.0731C143.937 37.4343 143.756 38.0214 143.756 38.8568V44.2077C143.756 44.3658 143.71 44.4787 143.597 44.5916C143.483 44.7045 143.347 44.7496 143.211 44.7496H141.622C141.463 44.7496 141.35 44.7045 141.237 44.5916C141.123 44.4787 141.078 44.3432 141.078 44.2077V34.5895C141.078 34.4315 141.123 34.3186 141.237 34.2057C141.35 34.0928 141.486 34.0476 141.622 34.0476H143.188C143.347 34.0476 143.461 34.0928 143.574 34.2057C143.688 34.3186 143.733 34.454 143.733 34.5895V35.0636C144.096 34.725 144.482 34.4766 144.891 34.296C145.299 34.1154 145.844 34.0251 146.502 34.0251H147.432C147.591 34.0251 147.705 34.0702 147.818 34.1831C147.932 34.296 147.977 34.4315 147.977 34.5669V35.9216C147.977 36.0797 147.932 36.1925 147.818 36.3054C147.705 36.4183 147.569 36.4635 147.432 36.4635H146.093V36.5312Z" fill="white"/>
<path d="M11.5295 39.7373C11.5295 40.663 11.2118 41.3403 10.599 41.7016C9.9862 42.0628 9.19184 42.2434 8.26131 42.2434H4.4257V37.2085H8.23861C9.16915 37.2085 9.9635 37.4118 10.5763 37.7504C11.2572 38.1117 11.5295 38.789 11.5295 39.7373ZM7.55774 47.5493H4.4257V54.8194C4.4257 54.8871 4.4257 54.9549 4.40301 55.0226H11.416C11.348 54.9549 11.3253 54.8871 11.2799 54.8194L7.55774 47.5493ZM34.4524 48.0008C34.1573 47.7751 33.7034 47.5718 33.136 47.3912C32.5686 47.188 31.797 47.0074 30.8891 46.8494C29.9813 46.6462 28.8919 46.4204 27.6663 46.172C25.3513 45.6527 23.6491 44.8399 22.5824 43.6884C21.5157 42.537 20.971 40.9791 20.971 39.0148C20.971 38.202 21.1299 37.4569 21.4249 36.7344C21.72 35.9893 22.1285 35.312 22.6732 34.7024C23.2179 34.0928 23.8988 33.5735 24.6931 33.1219C25.4875 32.6704 26.3953 32.3091 27.4167 32.0608V29.5546C27.4167 29.3062 27.5074 29.103 27.6663 28.8998C27.8479 28.6966 28.0521 28.6515 28.3018 28.6515H32.7275C32.9771 28.6515 33.1814 28.7418 33.363 28.8998C33.5445 29.103 33.6126 29.2837 33.6126 29.5546V32.1059C34.634 32.3543 35.5418 32.7155 36.3815 33.1671C37.2213 33.6186 37.9249 34.1379 38.4923 34.725C38.8554 35.0411 39.1277 35.4023 39.4001 35.7636L37.539 17.4076C37.2894 14.9015 34.9971 12.8243 32.5005 12.8243H6.51372C4.01718 12.8243 1.72489 14.8789 1.47523 17.4076L0 31.9479H8.26131C9.73654 31.9479 11.0983 32.1059 12.2558 32.422C13.436 32.7381 14.4346 33.2348 15.2516 33.8444C16.0914 34.4992 16.7042 35.2894 17.1581 36.2603C17.612 37.2311 17.7936 38.3826 17.7936 39.7147C17.7936 41.4306 17.4305 42.8079 16.7269 43.9368C16.0233 45.0657 15.0247 45.9011 13.731 46.4881L17.9071 54.5485C17.9752 54.6839 17.9979 54.7968 17.9979 54.9323V54.9549H25.2378C24.9428 54.8194 24.6704 54.7065 24.3981 54.571C23.5357 54.1195 22.7867 53.5776 22.1512 52.9906C21.5157 52.4035 21.0618 51.7714 20.6987 51.094C20.3355 50.4167 20.1767 49.7168 20.154 48.9943C20.154 48.7911 20.2221 48.6104 20.3809 48.475C20.5398 48.3169 20.6987 48.2492 20.8575 48.2492H25.2832C25.601 48.2492 25.8506 48.2718 26.0322 48.3847C26.2138 48.475 26.3953 48.5879 26.5769 48.7459C26.6677 48.8362 26.8039 48.9717 26.9854 49.1975C27.167 49.4232 27.394 49.6264 27.7344 49.8522C28.0521 50.078 28.4153 50.2361 28.8919 50.3941C29.3458 50.5521 29.9132 50.6199 30.5941 50.6199C31.7743 50.6199 32.7729 50.4844 33.5899 50.2361C34.3843 49.9877 34.7701 49.491 34.7701 48.8136C34.8609 48.4975 34.7247 48.2266 34.4524 48.0008ZM34.5432 38.9245C34.3616 38.8342 34.1573 38.6987 33.9758 38.4955C33.9077 38.4278 33.8169 38.2923 33.658 38.1342C33.4992 37.9762 33.2949 37.8182 33.0452 37.6601C32.7956 37.5021 32.4324 37.344 32.0239 37.2085C31.6154 37.0731 31.1161 37.0053 30.5487 37.0053C30.1402 37.0053 29.7089 37.0279 29.3231 37.0957C28.9373 37.1634 28.5741 37.2537 28.2564 37.344C27.9387 37.4795 27.7117 37.6375 27.5074 37.8633C27.3259 38.0891 27.2124 38.3826 27.2124 38.6987C27.2124 39.0148 27.3032 39.3083 27.5301 39.5341C27.7571 39.7599 28.0975 39.9856 28.6195 40.1888C29.1415 40.392 29.7997 40.5727 30.6395 40.7307C31.4792 40.9339 32.5005 41.1145 33.7488 41.3855C34.9971 41.6564 36.0638 41.9725 36.9943 42.3563C37.9249 42.7402 38.6965 43.2369 39.3093 43.8013C39.7632 44.2303 40.1491 44.7044 40.4441 45.2463L39.8086 38.9922H35.3829C34.9971 39.0599 34.7247 39.0148 34.5432 38.9245Z" fill="url(#paint0_linear_86_339)"/>
<path d="M28.6876 18.5591C28.1429 18.5591 27.6662 18.1301 27.5528 17.5883L25.9414 7.15723C25.5328 4.38013 22.7185 2.28038 19.5184 2.28038C16.3183 2.28038 13.504 4.38013 13.0955 7.15723L11.4841 17.5883C11.3933 18.1979 10.8032 18.6494 10.1677 18.5591C9.55491 18.4688 9.101 17.8818 9.21448 17.227L10.8259 6.79598C11.416 2.93514 15.1608 0 19.4957 0C23.876 0 27.5982 2.93514 28.2109 6.81856L29.8224 17.2496C29.9131 17.8592 29.5046 18.4688 28.8691 18.5817C28.8237 18.5591 28.7556 18.5591 28.6876 18.5591Z" fill="white"/>
<defs>
<linearGradient id="paint0_linear_86_339" x1="14.0711" y1="58.9525" x2="25.4482" y2="12.6985" gradientUnits="userSpaceOnUse">
<stop stop-color="#9E00FF"/>
<stop offset="1" stop-color="#6AC4F8"/>
</linearGradient>
</defs>
</svg>
