<svg width="77" height="91" viewBox="0 0 77 91" fill="none" xmlns="http://www.w3.org/2000/svg">
<path d="M0 57.4631L18.4479 58.0638L20.4531 62.4686L0.200521 62.5687L0 57.4631Z" fill="#FF25FF"/>
<path d="M59.2539 61.868L70.082 69.176L77 64.4709L64.7682 59.2651L59.2539 61.868Z" fill="url(#paint0_linear_28_27)"/>
<path d="M65.069 37.5412L73.1901 36.8405V38.8427H65.069V37.5412Z" fill="url(#paint1_linear_28_27)"/>
<path d="M12.5326 3.30363L21.0547 0L23.3607 1.60176L16.3425 5.30583L12.5326 3.30363Z" fill="white"/>
<path d="M12.5326 87.9967L16.2422 91L17.3451 90.1992L12.5326 86.7954V87.9967Z" fill="url(#paint2_linear_28_27)"/>
<path d="M61.6602 72.0792L77 77.1848L75.7969 79.6876L60.6576 73.7811L61.6602 72.0792Z" fill="url(#paint3_linear_28_27)"/>
<defs>
<linearGradient id="paint0_linear_28_27" x1="59.2058" y1="64.1931" x2="76.9561" y2="64.1931" gradientUnits="userSpaceOnUse">
<stop stop-color="#550086"/>
<stop offset="0.2197" stop-color="#55018B"/>
<stop offset="0.485" stop-color="#55059A"/>
<stop offset="0.7725" stop-color="#540AB2"/>
<stop offset="0.9944" stop-color="#5410CA"/>
</linearGradient>
<linearGradient id="paint1_linear_28_27" x1="65.0514" y1="37.8597" x2="73.1567" y2="37.8597" gradientUnits="userSpaceOnUse">
<stop stop-color="#550086"/>
<stop offset="0.2197" stop-color="#55018B"/>
<stop offset="0.485" stop-color="#55059A"/>
<stop offset="0.7725" stop-color="#540AB2"/>
<stop offset="0.9944" stop-color="#5410CA"/>
</linearGradient>
<linearGradient id="paint2_linear_28_27" x1="12.5499" y1="88.8939" x2="17.3065" y2="88.8939" gradientUnits="userSpaceOnUse">
<stop stop-color="#550086"/>
<stop offset="0.2197" stop-color="#55018B"/>
<stop offset="0.485" stop-color="#55059A"/>
<stop offset="0.7725" stop-color="#540AB2"/>
<stop offset="0.9944" stop-color="#5410CA"/>
</linearGradient>
<linearGradient id="paint3_linear_28_27" x1="60.619" y1="75.9017" x2="76.9561" y2="75.9017" gradientUnits="userSpaceOnUse">
<stop stop-color="#550086"/>
<stop offset="0.2197" stop-color="#55018B"/>
<stop offset="0.485" stop-color="#55059A"/>
<stop offset="0.7725" stop-color="#540AB2"/>
<stop offset="0.9944" stop-color="#5410CA"/>
</linearGradient>
</defs>
</svg>
