<svg width="118" height="57" viewBox="0 0 118 57" fill="none" xmlns="http://www.w3.org/2000/svg">
<g clip-path="url(#clip0_40_37)">
<path d="M44 49.1L50.3 43.3L55.7 44.6L48.6 50.3L44 49.1Z" fill="#FF25FF"/>
<path d="M53.1 10.9L56.3 3L58.2 1L54.6 10.1L53.1 10.9Z" fill="#FF25FF"/>
<path d="M48.6 53.4L55.6 50.8L58.2 52L49.9 56.8L48.6 53.4Z" fill="url(#paint0_linear_40_37)"/>
<path d="M0 40.8L2.5 37.3H4.9L1.7 41.7L0 40.8Z" fill="white"/>
<path d="M68 14.6L81.4 3L85.2 4.1L70.8 17.6L68 14.6Z" fill="url(#paint1_linear_40_37)"/>
<path d="M105.7 4.1L115.5 0L117.8 2.1L107.9 5.9L105.7 4.1Z" fill="url(#paint2_linear_40_37)"/>
</g>
<defs>
<linearGradient id="paint0_linear_40_37" x1="48.5684" y1="53.8032" x2="58.1684" y2="53.8032" gradientUnits="userSpaceOnUse">
<stop stop-color="#550086"/>
<stop offset="0.2197" stop-color="#55018B"/>
<stop offset="0.485" stop-color="#55059A"/>
<stop offset="0.7725" stop-color="#540AB2"/>
<stop offset="0.9944" stop-color="#5410CA"/>
</linearGradient>
<linearGradient id="paint1_linear_40_37" x1="68.0211" y1="10.3065" x2="85.2" y2="10.3065" gradientUnits="userSpaceOnUse">
<stop stop-color="#550086"/>
<stop offset="0.2197" stop-color="#55018B"/>
<stop offset="0.485" stop-color="#55059A"/>
<stop offset="0.7725" stop-color="#540AB2"/>
<stop offset="0.9944" stop-color="#5410CA"/>
</linearGradient>
<linearGradient id="paint2_linear_40_37" x1="105.663" y1="2.969" x2="117.79" y2="2.969" gradientUnits="userSpaceOnUse">
<stop stop-color="#550086"/>
<stop offset="0.2197" stop-color="#55018B"/>
<stop offset="0.485" stop-color="#55059A"/>
<stop offset="0.7725" stop-color="#540AB2"/>
<stop offset="0.9944" stop-color="#5410CA"/>
</linearGradient>
<clipPath id="clip0_40_37">
<rect width="117.8" height="56.8" fill="white"/>
</clipPath>
</defs>
</svg>
