<svg class="hidden">
    <symbol fill="none" xmlns="http://www.w3.org/2000/svg" viewBox="0 0 139 128" id="01">
        <g clip-path="url(#clip0_28_46)">
        <path d="M136.09 72.6142L118.156 68.552L117.021 63.7867L136.913 67.6408L136.09 72.6142Z" fill="#FF25FF"></path>
        <path d="M63.8959 84.7709L57.7787 96.3757L55.1876 96.4877L60.3452 86.8209L63.8959 84.7709Z" fill="#FF63FF"></path>
        <path d="M39.4252 108.587L34.5584 113.357L32.4104 112.637L37.6002 108.026L39.4252 108.587Z" fill="white"></path>
        <path d="M36.2491 38.6855L25.5958 50.8334L22.9117 49.3844L33.8615 36.9501L36.2491 38.6855Z" fill="#FF25FF"></path>
        </g>
        <defs>
        <clipPath id="clip0_28_46">
            <rect width="113" height="82" fill="white"></rect>
        </clipPath>
        </defs>
    </symbol>
    <symbol fill="none" xmlns="http://www.w3.org/2000/svg" viewBox="0 0 118 57" id="02">
        <g clip-path="url(#clip0_28_34)">
        <path d="M44 49.1L50.3 43.3L55.7 44.6L48.6 50.3L44 49.1Z" fill="#FF25FF"></path>
        <path d="M53.1001 10.9L56.3001 3L58.2001 1L54.6001 10.1L53.1001 10.9Z" fill="#FF25FF"></path>
        <path d="M48.6001 53.4001L55.6001 50.8L58.2001 52L49.9001 56.8L48.6001 53.4001Z" fill="url(#paint0_linear_28_34)"></path>
        <path d="M0 40.8L2.5 37.3H4.9L1.7 41.7001L0 40.8Z" fill="white"></path>
        <path d="M68 14.6L81.4 3L85.2 4.1L70.8 17.6L68 14.6Z" fill="url(#paint1_linear_28_34)"></path>
        <path d="M105.7 4.1L115.5 0L117.8 2.1L107.9 5.9L105.7 4.1Z" fill="url(#paint2_linear_28_34)"></path>
        </g>
        <defs>
        <linearGradient id="paint0_linear_28_34" x1="48.5685" y1="53.8032" x2="58.1685" y2="53.8032" gradientUnits="userSpaceOnUse">
            <stop stop-color="#550086"></stop>
            <stop offset="0.2197" stop-color="#55018B"></stop>
            <stop offset="0.485" stop-color="#55059A"></stop>
            <stop offset="0.7725" stop-color="#540AB2"></stop>
            <stop offset="0.9944" stop-color="#5410CA"></stop>
        </linearGradient>
        <linearGradient id="paint1_linear_28_34" x1="68.0211" y1="10.3065" x2="85.2" y2="10.3065" gradientUnits="userSpaceOnUse">
            <stop stop-color="#550086"></stop>
            <stop offset="0.2197" stop-color="#55018B"></stop>
            <stop offset="0.485" stop-color="#55059A"></stop>
            <stop offset="0.7725" stop-color="#540AB2"></stop>
            <stop offset="0.9944" stop-color="#5410CA"></stop>
        </linearGradient>
        <linearGradient id="paint2_linear_28_34" x1="105.663" y1="2.969" x2="117.789" y2="2.969" gradientUnits="userSpaceOnUse">
            <stop stop-color="#550086"></stop>
            <stop offset="0.2197" stop-color="#55018B"></stop>
            <stop offset="0.485" stop-color="#55059A"></stop>
            <stop offset="0.7725" stop-color="#540AB2"></stop>
            <stop offset="0.9944" stop-color="#5410CA"></stop>
        </linearGradient>
        <clipPath id="clip0_28_34">
            <rect width="117.8" height="56.8" fill="white"></rect>
        </clipPath>
        </defs>
    </symbol>
    <symbol fill="none" xmlns="http://www.w3.org/2000/svg" viewBox="0 0 113 82" id="03">
        <path d="M3.2 0L16.7 12.4848L15.3 17.1791L0 3.89525L3.2 0Z" fill="#FF25FF"></path>
        <path d="M71.8 25.5689L82.9 18.5774L85.2 19.7759L75.9 25.5689H71.8Z" fill="#FF63FF"></path>
        <path d="M104.9 17.179L111.5 15.4811L113 17.179L106.2 18.5773L104.9 17.179Z" fill="white"></path>
        <path d="M72.7 79.3033L88 74.1096L89.6 76.7065L73.9 82L72.7 79.3033Z" fill="#FF25FF"></path>
    </symbol>
    <symbol fill="none" xmlns="http://www.w3.org/2000/svg" viewBox="0 0 60 68" id="04">
        <path d="M30.1007 32.7332L10.4698 45.2995L17.6175 47.6303L32.9195 35.2667L30.1007 32.7332Z" fill="#FF63FF"></path>
        <path d="M43.9933 66.0745L53.0537 63.7437L55.1678 66.0745L45.7047 68L43.9933 66.0745Z" fill="white"></path>
        <path d="M59.1946 27.1595L48.3221 21.4844L50.0336 19.2549L60 26.2474L59.1946 27.1595Z" fill="url(#paint0_linear_28_41)"></path>
        <path d="M10.3691 0L0 1.92548L3.02013 4.56036L11.9799 2.22951L10.3691 0Z" fill="url(#paint1_linear_28_41)"></path>
        <defs>
        <linearGradient id="paint0_linear_28_41" x1="48.2831" y1="23.2255" x2="59.9576" y2="23.2255" gradientUnits="userSpaceOnUse">
            <stop stop-color="#550086"></stop>
            <stop offset="0.2197" stop-color="#55018B"></stop>
            <stop offset="0.485" stop-color="#55059A"></stop>
            <stop offset="0.7725" stop-color="#540AB2"></stop>
            <stop offset="0.9944" stop-color="#5410CA"></stop>
        </linearGradient>
        <linearGradient id="paint1_linear_28_41" x1="0" y1="2.26234" x2="12.0169" y2="2.26234" gradientUnits="userSpaceOnUse">
            <stop stop-color="#550086"></stop>
            <stop offset="0.2197" stop-color="#55018B"></stop>
            <stop offset="0.485" stop-color="#55059A"></stop>
            <stop offset="0.7725" stop-color="#540AB2"></stop>
            <stop offset="0.9944" stop-color="#5410CA"></stop>
        </linearGradient>
        </defs>
    </symbol>
    <symbol fill="none" xmlns="http://www.w3.org/2000/svg" viewBox="0 0 91 77" id="05">
        <g clip-path="url(#clip0_28_71)">
        <path d="M57.4631 77L58.0638 58.5521L62.4686 56.5469L62.5687 76.7995L57.4631 77Z" fill="#FF25FF"></path>
        <path d="M61.868 17.7461L69.176 6.91797L64.4709 -4.04225e-06L59.2651 12.2318L61.868 17.7461Z" fill="url(#paint0_linear_28_71)"></path>
        <path d="M37.5413 11.9309L36.8406 3.80981L38.8428 3.80981L38.8428 11.9309L37.5413 11.9309Z" fill="url(#paint1_linear_28_71)"></path>
        <path d="M3.30363 64.4675L-3.72514e-07 55.9454L1.60176 53.6394L5.30583 60.6576L3.30363 64.4675Z" fill="white"></path>
        <path d="M87.9967 64.4675L91 60.7579L90.1992 59.655L86.7954 64.4675L87.9967 64.4675Z" fill="url(#paint2_linear_28_71)"></path>
        <path d="M72.0791 15.3399L77.1847 7.98855e-05L79.6875 1.20321L73.781 16.3425L72.0791 15.3399Z" fill="url(#paint3_linear_28_71)"></path>
        </g>
        <defs>
        <linearGradient id="paint0_linear_28_71" x1="64.1931" y1="17.7942" x2="64.1931" y2="0.0439101" gradientUnits="userSpaceOnUse">
            <stop stop-color="#550086"></stop>
            <stop offset="0.2197" stop-color="#55018B"></stop>
            <stop offset="0.485" stop-color="#55059A"></stop>
            <stop offset="0.7725" stop-color="#540AB2"></stop>
            <stop offset="0.9944" stop-color="#5410CA"></stop>
        </linearGradient>
        <linearGradient id="paint1_linear_28_71" x1="37.8598" y1="11.9485" x2="37.8598" y2="3.8432" gradientUnits="userSpaceOnUse">
            <stop stop-color="#550086"></stop>
            <stop offset="0.2197" stop-color="#55018B"></stop>
            <stop offset="0.485" stop-color="#55059A"></stop>
            <stop offset="0.7725" stop-color="#540AB2"></stop>
            <stop offset="0.9944" stop-color="#5410CA"></stop>
        </linearGradient>
        <linearGradient id="paint2_linear_28_71" x1="88.8939" y1="64.4502" x2="88.8939" y2="59.6936" gradientUnits="userSpaceOnUse">
            <stop stop-color="#550086"></stop>
            <stop offset="0.2197" stop-color="#55018B"></stop>
            <stop offset="0.485" stop-color="#55059A"></stop>
            <stop offset="0.7725" stop-color="#540AB2"></stop>
            <stop offset="0.9944" stop-color="#5410CA"></stop>
        </linearGradient>
        <linearGradient id="paint3_linear_28_71" x1="75.9016" y1="16.3811" x2="75.9016" y2="0.0439931" gradientUnits="userSpaceOnUse">
            <stop stop-color="#550086"></stop>
            <stop offset="0.2197" stop-color="#55018B"></stop>
            <stop offset="0.485" stop-color="#55059A"></stop>
            <stop offset="0.7725" stop-color="#540AB2"></stop>
            <stop offset="0.9944" stop-color="#5410CA"></stop>
        </linearGradient>
        <clipPath id="clip0_28_71">
            <rect width="77" height="91" fill="white" transform="translate(0 77) rotate(-90)"></rect>
        </clipPath>
        </defs>
    </symbol>
    <symbol fill="none" xmlns="http://www.w3.org/2000/svg" viewBox="0 0 139 128" id="06">
        <g clip-path="url(#clip0_28_78)">
        <path d="M43.7713 1.6L49.2202 19.1621L45.6607 22.5275L39.0524 3.37339L43.7713 1.6Z" fill="#FF25FF"></path>
        <path d="M90.3962 58.0433L103.505 57.5385L104.897 59.7265L93.9469 60.0933L90.3962 58.0433Z" fill="#FF63FF"></path>
        <path d="M123.257 67.3274L129.821 69.1569L130.271 71.3774L123.683 69.1883L123.257 67.3274Z" fill="white"></path>
        <path d="M64.3084 105.029L80.1555 108.181L80.2427 111.23L63.9993 107.964L64.3084 105.029Z" fill="#FF25FF"></path>
        </g>
        <defs>
        <clipPath id="clip0_28_78">
            <rect width="113" height="82" fill="white" transform="translate(41) rotate(30)"></rect>
        </clipPath>
        </defs>
    </symbol>
    <symbol fill="none" xmlns="http://www.w3.org/2000/svg" viewBox="0 0 139 128" id="07">
        <g clip-path="url(#clip0_40_68)">
        <path d="M136.09 72.6141L118.156 68.5519L117.021 63.7866L136.913 67.6407L136.09 72.6141Z" fill="#FF25FF"></path>
        <path d="M63.8959 84.7708L57.7787 96.3756L55.1876 96.4877L60.3452 86.8208L63.8959 84.7708Z" fill="#FF63FF"></path>
        <path d="M39.4253 108.587L34.5585 113.357L32.4105 112.637L37.6003 108.026L39.4253 108.587Z" fill="white"></path>
        <path d="M36.2492 38.6854L25.5958 50.8333L22.9118 49.3843L33.8616 36.95L36.2492 38.6854Z" fill="#FF25FF"></path>
        </g>
        <defs>
        <clipPath id="clip0_40_68">
            <rect width="113" height="82" fill="white" transform="translate(138.861 71.0141) rotate(150)"></rect>
        </clipPath>
        </defs>
    </symbol>
    <symbol fill="none" xmlns="http://www.w3.org/2000/svg" viewBox="0 0 91 91" id="08">
        <g clip-path="url(#clip0_48_68)">
        <path d="M46.0762 46.2248L51.0907 23.4622L44.3856 26.8625L42.2914 46.4233L46.0762 46.2248Z" fill="#FF63FF"></path>
        <path d="M12.6883 32.4445L7.923 40.4954L4.78008 40.3395L10.1167 32.291L12.6883 32.4445Z" fill="white"></path>
        <path d="M29.4242 70.7247L41.1282 67.0594L41.4922 69.8464L29.4986 71.9392L29.4242 70.7247Z" fill="url(#paint0_linear_48_68)"></path>
        <path d="M83.1666 55.4496L89.1445 46.761L85.1456 47.03L80.4515 55.0098L83.1666 55.4496Z" fill="url(#paint1_linear_48_68)"></path>
        </g>
        <defs>
        <linearGradient id="paint0_linear_48_68" x1="39.9257" y1="65.7996" x2="31.6636" y2="74.0478" gradientUnits="userSpaceOnUse">
            <stop stop-color="#550086"></stop>
            <stop offset="0.2197" stop-color="#55018B"></stop>
            <stop offset="0.485" stop-color="#55059A"></stop>
            <stop offset="0.7725" stop-color="#540AB2"></stop>
            <stop offset="0.9944" stop-color="#5410CA"></stop>
        </linearGradient>
        <linearGradient id="paint1_linear_48_68" x1="88.9065" y1="46.5226" x2="80.4021" y2="55.0127" gradientUnits="userSpaceOnUse">
            <stop stop-color="#550086"></stop>
            <stop offset="0.2197" stop-color="#55018B"></stop>
            <stop offset="0.485" stop-color="#55059A"></stop>
            <stop offset="0.7725" stop-color="#540AB2"></stop>
            <stop offset="0.9944" stop-color="#5410CA"></stop>
        </linearGradient>
        <clipPath id="clip0_48_68">
            <rect width="60" height="68" fill="white" transform="translate(90.5049 48.1237) rotate(135.048)"></rect>
        </clipPath>
        </defs>
    </symbol>
    <symbol fill="none" xmlns="http://www.w3.org/2000/svg" viewBox="0 0 118 57" id="09">
        <g clip-path="url(#clip0_40_37)">
        <path d="M44 49.1L50.3 43.3L55.7 44.6L48.6 50.3L44 49.1Z" fill="#FF25FF"></path>
        <path d="M53.1 10.9L56.3 3L58.2 1L54.6 10.1L53.1 10.9Z" fill="#FF25FF"></path>
        <path d="M48.6 53.4L55.6 50.8L58.2 52L49.9 56.8L48.6 53.4Z" fill="url(#paint0_linear_40_37)"></path>
        <path d="M0 40.8L2.5 37.3H4.9L1.7 41.7L0 40.8Z" fill="white"></path>
        <path d="M68 14.6L81.4 3L85.2 4.1L70.8 17.6L68 14.6Z" fill="url(#paint1_linear_40_37)"></path>
        <path d="M105.7 4.1L115.5 0L117.8 2.1L107.9 5.9L105.7 4.1Z" fill="url(#paint2_linear_40_37)"></path>
        </g>
        <defs>
        <linearGradient id="paint0_linear_40_37" x1="48.5684" y1="53.8032" x2="58.1684" y2="53.8032" gradientUnits="userSpaceOnUse">
            <stop stop-color="#550086"></stop>
            <stop offset="0.2197" stop-color="#55018B"></stop>
            <stop offset="0.485" stop-color="#55059A"></stop>
            <stop offset="0.7725" stop-color="#540AB2"></stop>
            <stop offset="0.9944" stop-color="#5410CA"></stop>
        </linearGradient>
        <linearGradient id="paint1_linear_40_37" x1="68.0211" y1="10.3065" x2="85.2" y2="10.3065" gradientUnits="userSpaceOnUse">
            <stop stop-color="#550086"></stop>
            <stop offset="0.2197" stop-color="#55018B"></stop>
            <stop offset="0.485" stop-color="#55059A"></stop>
            <stop offset="0.7725" stop-color="#540AB2"></stop>
            <stop offset="0.9944" stop-color="#5410CA"></stop>
        </linearGradient>
        <linearGradient id="paint2_linear_40_37" x1="105.663" y1="2.969" x2="117.79" y2="2.969" gradientUnits="userSpaceOnUse">
            <stop stop-color="#550086"></stop>
            <stop offset="0.2197" stop-color="#55018B"></stop>
            <stop offset="0.485" stop-color="#55059A"></stop>
            <stop offset="0.7725" stop-color="#540AB2"></stop>
            <stop offset="0.9944" stop-color="#5410CA"></stop>
        </linearGradient>
        <clipPath id="clip0_40_37">
            <rect width="117.8" height="56.8" fill="white"></rect>
        </clipPath>
        </defs>
    </symbol>
    <symbol fill="none" xmlns="http://www.w3.org/2000/svg" viewBox="0 0 60 68" id="10">
        <g clip-path="url(#clip0_40_32)">
        <path d="M30.1007 32.7333L10.4698 45.2996L17.6174 47.6304L32.9195 35.2668L30.1007 32.7333Z" fill="#FF63FF"></path>
        <path d="M43.9933 66.0746L53.0537 63.7437L55.1678 66.0746L45.7047 68L43.9933 66.0746Z" fill="white"></path>
        <path d="M59.1946 27.1595L48.3221 21.4844L50.0336 19.2549L60 26.2474L59.1946 27.1595Z" fill="url(#paint0_linear_40_32)"></path>
        <path d="M10.3691 6.10352e-05L0 1.92555L3.02013 4.56042L11.9799 2.22957L10.3691 6.10352e-05Z" fill="url(#paint1_linear_40_32)"></path>
        </g>
        <defs>
        <linearGradient id="paint0_linear_40_32" x1="48.2831" y1="23.2255" x2="59.9576" y2="23.2255" gradientUnits="userSpaceOnUse">
            <stop stop-color="#550086"></stop>
            <stop offset="0.2197" stop-color="#55018B"></stop>
            <stop offset="0.485" stop-color="#55059A"></stop>
            <stop offset="0.7725" stop-color="#540AB2"></stop>
            <stop offset="0.9944" stop-color="#5410CA"></stop>
        </linearGradient>
        <linearGradient id="paint1_linear_40_32" x1="0" y1="2.2624" x2="12.0169" y2="2.2624" gradientUnits="userSpaceOnUse">
            <stop stop-color="#550086"></stop>
            <stop offset="0.2197" stop-color="#55018B"></stop>
            <stop offset="0.485" stop-color="#55059A"></stop>
            <stop offset="0.7725" stop-color="#540AB2"></stop>
            <stop offset="0.9944" stop-color="#5410CA"></stop>
        </linearGradient>
        <clipPath id="clip0_40_32">
            <rect width="60" height="68" fill="white"></rect>
        </clipPath>
        </defs>
    </symbol>
    <symbol fill="none" xmlns="http://www.w3.org/2000/svg" viewBox="0 0 118 57" id="11">
        <g clip-path="url(#clip0_48_117)">
        <path d="M44 49.1L50.3 43.3L55.7 44.6L48.6 50.3L44 49.1Z" fill="#FF25FF"></path>
        <path d="M53.1001 10.9L56.3001 3L58.2001 1L54.6001 10.1L53.1001 10.9Z" fill="#FF25FF"></path>
        <path d="M48.6001 53.4L55.6001 50.8L58.2001 52L49.9001 56.8L48.6001 53.4Z" fill="url(#paint0_linear_48_117)"></path>
        <path d="M0 40.8L2.5 37.3H4.9L1.7 41.7L0 40.8Z" fill="white"></path>
        <path d="M68 14.6L81.4 3L85.2 4.1L70.8 17.6L68 14.6Z" fill="url(#paint1_linear_48_117)"></path>
        <path d="M105.7 4.1L115.5 0L117.8 2.1L107.9 5.9L105.7 4.1Z" fill="url(#paint2_linear_48_117)"></path>
        </g>
        <defs>
        <linearGradient id="paint0_linear_48_117" x1="48.5685" y1="53.8032" x2="58.1685" y2="53.8032" gradientUnits="userSpaceOnUse">
            <stop stop-color="#550086"></stop>
            <stop offset="0.2197" stop-color="#55018B"></stop>
            <stop offset="0.485" stop-color="#55059A"></stop>
            <stop offset="0.7725" stop-color="#540AB2"></stop>
            <stop offset="0.9944" stop-color="#5410CA"></stop>
        </linearGradient>
        <linearGradient id="paint1_linear_48_117" x1="68.0211" y1="10.3065" x2="85.2" y2="10.3065" gradientUnits="userSpaceOnUse">
            <stop stop-color="#550086"></stop>
            <stop offset="0.2197" stop-color="#55018B"></stop>
            <stop offset="0.485" stop-color="#55059A"></stop>
            <stop offset="0.7725" stop-color="#540AB2"></stop>
            <stop offset="0.9944" stop-color="#5410CA"></stop>
        </linearGradient>
        <linearGradient id="paint2_linear_48_117" x1="105.663" y1="2.969" x2="117.79" y2="2.969" gradientUnits="userSpaceOnUse">
            <stop stop-color="#550086"></stop>
            <stop offset="0.2197" stop-color="#55018B"></stop>
            <stop offset="0.485" stop-color="#55059A"></stop>
            <stop offset="0.7725" stop-color="#540AB2"></stop>
            <stop offset="0.9944" stop-color="#5410CA"></stop>
        </linearGradient>
        <clipPath id="clip0_48_117">
            <rect width="117.8" height="56.8" fill="white"></rect>
        </clipPath>
        </defs>
    </symbol>
    <symbol fill="none" xmlns="http://www.w3.org/2000/svg" viewBox="0 0 139 128" id="12">
        <g clip-path="url(#clip0_42_25)">
        <path d="M43.7713 1.6L49.2202 19.1621L45.6607 22.5275L39.0524 3.37339L43.7713 1.6Z" fill="#FF25FF"></path>
        <path d="M90.3964 58.0432L103.505 57.5384L104.898 59.7264L93.9471 60.0932L90.3964 58.0432Z" fill="#FF63FF"></path>
        <path d="M123.257 67.3275L129.821 69.1571L130.271 71.3775L123.683 69.1885L123.257 67.3275Z" fill="white"></path>
        <path d="M64.3084 105.029L80.1555 108.181L80.2427 111.23L63.9993 107.964L64.3084 105.029Z" fill="#FF25FF"></path>
        </g>
        <defs>
        <clipPath id="clip0_42_25">
            <rect width="113" height="82" fill="white" transform="translate(41) rotate(30)"></rect>
        </clipPath>
        </defs>
    </symbol>
</svg>